<svg xmlns="http://www.w3.org/2000/svg" viewBox="-20 -20 240 240">
<defs><linearGradient id="ryring" x1="0" y1="0" x2="1" y2="1"><stop offset="0%" stop-color="#ffe066"/><stop offset="50%" stop-color="#d4af37"/><stop offset="100%" stop-color="#8a6a1e"/></linearGradient></defs>
<circle cx="100" cy="100" r="107.0" fill="none" stroke="url(#ryring)" stroke-width="14" opacity="1"/>
<ellipse cx="212.0" cy="100.0" rx="6.5" ry="3" transform="rotate(0 212.0 100.0)" fill="url(#ryring)"/>
<ellipse cx="200.9" cy="148.6" rx="6.5" ry="3" transform="rotate(26 200.9 148.6)" fill="url(#ryring)"/>
<ellipse cx="169.8" cy="187.5" rx="6.5" ry="3" transform="rotate(51 169.8 187.5)" fill="url(#ryring)"/>
<ellipse cx="124.9" cy="209.2" rx="6.5" ry="3" transform="rotate(77 124.9 209.2)" fill="url(#ryring)"/>
<ellipse cx="75.1" cy="209.2" rx="6.5" ry="3" transform="rotate(103 75.1 209.2)" fill="url(#ryring)"/>
<ellipse cx="30.2" cy="187.5" rx="6.5" ry="3" transform="rotate(129 30.2 187.5)" fill="url(#ryring)"/>
<ellipse cx="-0.9" cy="148.6" rx="6.5" ry="3" transform="rotate(154 -0.9 148.6)" fill="url(#ryring)"/>
<ellipse cx="-12.0" cy="100.0" rx="6.5" ry="3" transform="rotate(180 -12.0 100.0)" fill="url(#ryring)"/>
<ellipse cx="-0.9" cy="51.4" rx="6.5" ry="3" transform="rotate(206 -0.9 51.4)" fill="url(#ryring)"/>
<ellipse cx="30.2" cy="12.5" rx="6.5" ry="3" transform="rotate(231 30.2 12.5)" fill="url(#ryring)"/>
<ellipse cx="75.1" cy="-9.2" rx="6.5" ry="3" transform="rotate(257 75.1 -9.2)" fill="url(#ryring)"/>
<ellipse cx="124.9" cy="-9.2" rx="6.5" ry="3" transform="rotate(283 124.9 -9.2)" fill="url(#ryring)"/>
<ellipse cx="169.8" cy="12.5" rx="6.5" ry="3" transform="rotate(309 169.8 12.5)" fill="url(#ryring)"/>
<ellipse cx="200.9" cy="51.4" rx="6.5" ry="3" transform="rotate(334 200.9 51.4)" fill="url(#ryring)"/>
</svg>