<svg xmlns="http://www.w3.org/2000/svg" viewBox="-20 -20 240 240">
<defs><linearGradient id="mtring" x1="0" y1="0" x2="1" y2="1"><stop offset="0%" stop-color="#22d3a5"/><stop offset="50%" stop-color="#8b5cf6"/><stop offset="100%" stop-color="#ec4899"/></linearGradient></defs>
<circle cx="100" cy="100" r="103.0" fill="none" stroke="url(#mtring)" stroke-width="6" opacity="0.9"/>
<path d="M 202.5 100.0 a4.5 4.5 0 0 1 9 0" fill="none" stroke="url(#mtring)" stroke-width="3" transform="rotate(90 207.0 100.0)"/>
<path d="M 191.9 146.4 a4.5 4.5 0 0 1 9 0" fill="none" stroke="url(#mtring)" stroke-width="3" transform="rotate(116 196.4 146.4)"/>
<path d="M 162.2 183.7 a4.5 4.5 0 0 1 9 0" fill="none" stroke="url(#mtring)" stroke-width="3" transform="rotate(141 166.7 183.7)"/>
<path d="M 119.3 204.3 a4.5 4.5 0 0 1 9 0" fill="none" stroke="url(#mtring)" stroke-width="3" transform="rotate(167 123.8 204.3)"/>
<path d="M 71.7 204.3 a4.5 4.5 0 0 1 9 0" fill="none" stroke="url(#mtring)" stroke-width="3" transform="rotate(193 76.2 204.3)"/>
<path d="M 28.8 183.7 a4.5 4.5 0 0 1 9 0" fill="none" stroke="url(#mtring)" stroke-width="3" transform="rotate(219 33.3 183.7)"/>
<path d="M -0.9 146.4 a4.5 4.5 0 0 1 9 0" fill="none" stroke="url(#mtring)" stroke-width="3" transform="rotate(244 3.6 146.4)"/>
<path d="M -11.5 100.0 a4.5 4.5 0 0 1 9 0" fill="none" stroke="url(#mtring)" stroke-width="3" transform="rotate(270 -7.0 100.0)"/>
<path d="M -0.9 53.6 a4.5 4.5 0 0 1 9 0" fill="none" stroke="url(#mtring)" stroke-width="3" transform="rotate(296 3.6 53.6)"/>
<path d="M 28.8 16.3 a4.5 4.5 0 0 1 9 0" fill="none" stroke="url(#mtring)" stroke-width="3" transform="rotate(321 33.3 16.3)"/>
<path d="M 71.7 -4.3 a4.5 4.5 0 0 1 9 0" fill="none" stroke="url(#mtring)" stroke-width="3" transform="rotate(347 76.2 -4.3)"/>
<path d="M 119.3 -4.3 a4.5 4.5 0 0 1 9 0" fill="none" stroke="url(#mtring)" stroke-width="3" transform="rotate(373 123.8 -4.3)"/>
<path d="M 162.2 16.3 a4.5 4.5 0 0 1 9 0" fill="none" stroke="url(#mtring)" stroke-width="3" transform="rotate(399 166.7 16.3)"/>
<path d="M 191.9 53.6 a4.5 4.5 0 0 1 9 0" fill="none" stroke="url(#mtring)" stroke-width="3" transform="rotate(424 196.4 53.6)"/>
</svg>
