<svg xmlns="http://www.w3.org/2000/svg" viewBox="-20 -20 240 240">
<defs><linearGradient id="ntring" x1="0" y1="0" x2="1" y2="1"><stop offset="0%" stop-color="#84cc16"/><stop offset="100%" stop-color="#166534"/></linearGradient></defs>
<circle cx="100" cy="100" r="104.0" fill="none" stroke="url(#ntring)" stroke-width="8" opacity="0.85"/>
<ellipse cx="212.0" cy="100.0" rx="6.5" ry="3.4" transform="rotate(40 212.0 100.0)" fill="url(#ntring)"/>
<ellipse cx="200.9" cy="148.6" rx="6.5" ry="3.4" transform="rotate(66 200.9 148.6)" fill="url(#ntring)"/>
<ellipse cx="169.8" cy="187.5" rx="6.5" ry="3.4" transform="rotate(91 169.8 187.5)" fill="url(#ntring)"/>
<ellipse cx="124.9" cy="209.2" rx="6.5" ry="3.4" transform="rotate(117 124.9 209.2)" fill="url(#ntring)"/>
<ellipse cx="75.1" cy="209.2" rx="6.5" ry="3.4" transform="rotate(143 75.1 209.2)" fill="url(#ntring)"/>
<ellipse cx="30.2" cy="187.5" rx="6.5" ry="3.4" transform="rotate(169 30.2 187.5)" fill="url(#ntring)"/>
<ellipse cx="-0.9" cy="148.6" rx="6.5" ry="3.4" transform="rotate(194 -0.9 148.6)" fill="url(#ntring)"/>
<ellipse cx="-12.0" cy="100.0" rx="6.5" ry="3.4" transform="rotate(220 -12.0 100.0)" fill="url(#ntring)"/>
<ellipse cx="-0.9" cy="51.4" rx="6.5" ry="3.4" transform="rotate(246 -0.9 51.4)" fill="url(#ntring)"/>
<ellipse cx="30.2" cy="12.5" rx="6.5" ry="3.4" transform="rotate(271 30.2 12.5)" fill="url(#ntring)"/>
<ellipse cx="75.1" cy="-9.2" rx="6.5" ry="3.4" transform="rotate(297 75.1 -9.2)" fill="url(#ntring)"/>
<ellipse cx="124.9" cy="-9.2" rx="6.5" ry="3.4" transform="rotate(323 124.9 -9.2)" fill="url(#ntring)"/>
<ellipse cx="169.8" cy="12.5" rx="6.5" ry="3.4" transform="rotate(349 169.8 12.5)" fill="url(#ntring)"/>
<ellipse cx="200.9" cy="51.4" rx="6.5" ry="3.4" transform="rotate(374 200.9 51.4)" fill="url(#ntring)"/>
</svg>