<svg xmlns="http://www.w3.org/2000/svg" viewBox="-20 -20 240 240">
<defs><linearGradient id="cpring" x1="0" y1="0" x2="1" y2="0"><stop offset="0%" stop-color="#ff2ea6"/><stop offset="100%" stop-color="#00e5ff"/></linearGradient></defs>
<circle cx="100" cy="100" r="107.0" fill="none" stroke="url(#cpring)" stroke-width="14" opacity="1"/>
<line x1="214.0" y1="100.0" x2="219.0" y2="100.0" stroke="#00e5ff" stroke-width="2"/>
<line x1="210.1" y1="129.5" x2="214.9" y2="130.8" stroke="#00e5ff" stroke-width="2"/>
<line x1="198.7" y1="157.0" x2="203.1" y2="159.5" stroke="#00e5ff" stroke-width="2"/>
<line x1="180.6" y1="180.6" x2="184.1" y2="184.1" stroke="#00e5ff" stroke-width="2"/>
<line x1="157.0" y1="198.7" x2="159.5" y2="203.1" stroke="#00e5ff" stroke-width="2"/>
<line x1="129.5" y1="210.1" x2="130.8" y2="214.9" stroke="#00e5ff" stroke-width="2"/>
<line x1="100.0" y1="214.0" x2="100.0" y2="219.0" stroke="#00e5ff" stroke-width="2"/>
<line x1="70.5" y1="210.1" x2="69.2" y2="214.9" stroke="#00e5ff" stroke-width="2"/>
<line x1="43.0" y1="198.7" x2="40.5" y2="203.1" stroke="#00e5ff" stroke-width="2"/>
<line x1="19.4" y1="180.6" x2="15.9" y2="184.1" stroke="#00e5ff" stroke-width="2"/>
<line x1="1.3" y1="157.0" x2="-3.1" y2="159.5" stroke="#00e5ff" stroke-width="2"/>
<line x1="-10.1" y1="129.5" x2="-14.9" y2="130.8" stroke="#00e5ff" stroke-width="2"/>
<line x1="-14.0" y1="100.0" x2="-19.0" y2="100.0" stroke="#00e5ff" stroke-width="2"/>
<line x1="-10.1" y1="70.5" x2="-14.9" y2="69.2" stroke="#00e5ff" stroke-width="2"/>
<line x1="1.3" y1="43.0" x2="-3.1" y2="40.5" stroke="#00e5ff" stroke-width="2"/>
<line x1="19.4" y1="19.4" x2="15.9" y2="15.9" stroke="#00e5ff" stroke-width="2"/>
<line x1="43.0" y1="1.3" x2="40.5" y2="-3.1" stroke="#00e5ff" stroke-width="2"/>
<line x1="70.5" y1="-10.1" x2="69.2" y2="-14.9" stroke="#00e5ff" stroke-width="2"/>
<line x1="100.0" y1="-14.0" x2="100.0" y2="-19.0" stroke="#00e5ff" stroke-width="2"/>
<line x1="129.5" y1="-10.1" x2="130.8" y2="-14.9" stroke="#00e5ff" stroke-width="2"/>
<line x1="157.0" y1="1.3" x2="159.5" y2="-3.1" stroke="#00e5ff" stroke-width="2"/>
<line x1="180.6" y1="19.4" x2="184.1" y2="15.9" stroke="#00e5ff" stroke-width="2"/>
<line x1="198.7" y1="43.0" x2="203.1" y2="40.5" stroke="#00e5ff" stroke-width="2"/>
<line x1="210.1" y1="70.5" x2="214.9" y2="69.2" stroke="#00e5ff" stroke-width="2"/>
</svg>