<svg width="200" height="200" viewBox="0 0 200 200" xmlns="http://www.w3.org/2000/svg">
  <defs>
    <linearGradient id="bg" x1="0" y1="0" x2="1" y2="1">
      <stop offset="0%" stop-color="#1a0a3d"/>
      <stop offset="55%" stop-color="#170b32"/>
      <stop offset="100%" stop-color="#0d1a3d"/>
    </linearGradient>
    <linearGradient id="hex" x1="0" y1="0" x2="1" y2="1">
      <stop offset="0%" stop-color="#9d6fff"/>
      <stop offset="100%" stop-color="#00d4ff"/>
    </linearGradient>
    <linearGradient id="crown" x1="0" y1="0" x2="0.6" y2="1">
      <stop offset="0%" stop-color="#ffd700"/>
      <stop offset="100%" stop-color="#ff6b35"/>
    </linearGradient>
    <linearGradient id="kgrad" x1="0" y1="0" x2="1" y2="1">
      <stop offset="0%" stop-color="#ffffff"/>
      <stop offset="100%" stop-color="#dcd6ff"/>
    </linearGradient>
  </defs>

  <rect width="200" height="200" rx="44" fill="url(#bg)"/>

  <g fill="url(#crown)">
    <rect x="73" y="40" width="13" height="17" rx="2"/>
    <rect x="93.5" y="32" width="13" height="25" rx="2"/>
    <rect x="114" y="40" width="13" height="17" rx="2"/>
  </g>

  <polygon points="100,42 153.7,71 153.7,129 100,158 46.3,129 46.3,71" fill="none" stroke="url(#hex)" stroke-width="4.5" stroke-linejoin="round"/>
  <polygon points="100,52 144,76 144,124 100,148 56,124 56,76" fill="rgba(124,58,237,0.16)" stroke="url(#hex)" stroke-width="1.5" stroke-linejoin="round" opacity="0.5"/>

  <path d="M78,72 L78,128 M78,101 L124,72 M78,101 L124,128" fill="none" stroke="url(#kgrad)" stroke-width="14" stroke-linecap="round" stroke-linejoin="round"/>
</svg>
